# xmcd
#
# Track frame offsets: 
#        150
#        33154
#        45839
#        78811
#        92063
#        117677
#        138491
#        161550
#        181070
#        201322
#        223583
#        240692
#        287309
#        313206
#
# Disc length: 4782 seconds
#
# Revision: 0
# Processed by: cddbd v1.5.2PL0 Copyright (c) Steve Scherf et al.
# Submitted via: ExactAudioCopy v0.95b1
#
DISCID=bb12ac0e
DTITLE=Albert King  - I'll Play The Blues For You- Blues At Sunrise 
DYEAR=1973
DGENRE=Blues
TTITLE0=I'll Play the Blues For You 
TTITLE1=Little Brother 
TTITLE2=Breaking Up Somebody's Home 
TTITLE3=High Cost of Loving 
TTITLE4=I'll Be Doggone 
TTITLE5=Answer to the Laundromat Blues 
TTITLE6=Don't Burn Down the Bridge 
TTITLE7=Angel of Mercy
TTITLE8=Don't Burn Down the Bridge (Cause You Might Wanna Come Back Ac
TTITLE8=ross) 
TTITLE9=I Believe to My Soul 
TTITLE10=For the Love of a Woman 
TTITLE11=Blues at Sunrise 
TTITLE12=Little Brother (Make a Way) 
TTITLE13=Roadhouse Blues
EXTD=
EXTT0=
EXTT1=
EXTT2=
EXTT3=
EXTT4=
EXTT5=
EXTT6=
EXTT7=
EXTT8=
EXTT9=
EXTT10=
EXTT11=
EXTT12=
EXTT13=
PLAYORDER=
